<?xml version="1.0" encoding="utf-8"?>
<svg width="105px" height="60px" viewBox="0 0 105 60" version="1.1" xmlns:xlink="http://www.w3.org/1999/xlink" xmlns="http://www.w3.org/2000/svg">
  <defs>
    <path d="M0 0L11.7514 0L11.7514 13.5408L0 13.5408L0 0Z" transform="translate(0.02559249 0.025117056)" id="path_1" />
    <path d="M0 0L36.7761 0L36.7761 12.9418L0 12.9418L0 0Z" transform="translate(4.1580042E-06 0.014719334)" id="path_2" />
    <clipPath id="mask_1">
      <use xlink:href="#path_1" />
    </clipPath>
    <clipPath id="mask_2">
      <use xlink:href="#path_2" />
    </clipPath>
  </defs>
  <g id="Logo">
    <path d="M0.750757 6.082L17.8173 31.8995C19.0715 33.5897 21.4583 33.9431 23.1485 32.6889C24.8388 31.4347 25.1923 29.0479 23.938 27.3577L6.8715 1.54025C5.61737 -0.149933 3.23047 -0.503446 1.54028 0.750732C-0.149992 2.00495 -0.503422 4.39181 0.750757 6.082" transform="translate(35.188694 12.983567)" id="Fill-1" fill="#F7B801" fill-rule="evenodd" stroke="none" />
    <path d="M0.750774 6.082L17.8173 31.8995C19.0714 33.5896 21.4583 33.9432 23.1485 32.6889C24.8388 31.4347 25.1923 29.0479 23.938 27.3577L6.87152 1.54025C5.61734 -0.149933 3.23048 -0.503446 1.5403 0.750732C-0.149974 2.00495 -0.503446 4.39181 0.750774 6.082" transform="translate(46.9259 12.983567)" id="Fill-3" fill="#F7B801" fill-rule="evenodd" stroke="none" />
    <path d="M0.750744 6.08201L17.8172 31.8994C19.0714 33.5897 21.4583 33.9431 23.1485 32.6889C24.8388 31.4347 25.1922 29.0479 23.938 27.3577L6.87153 1.54027C5.61736 -0.149962 3.23049 -0.503434 1.54027 0.750744C-0.149962 2.00492 -0.503434 4.39178 0.750744 6.08201" transform="translate(58.663136 12.983555)" id="Fill-5" fill="#F7B801" fill-rule="evenodd" stroke="none" />
    <path d="M0.750744 6.08199L17.8172 31.8995C19.0714 33.5897 21.4583 33.9432 23.1485 32.6889C24.8388 31.4347 25.1922 29.0479 23.9381 27.3577L6.87149 1.54025C5.61736 -0.149942 3.23049 -0.503455 1.54027 0.750765C-0.149962 2.00494 -0.503434 4.3918 0.750744 6.08199" transform="translate(70.40036 12.983576)" id="Fill-7" fill="#F7B801" fill-rule="evenodd" stroke="none" />
    <path d="M0.750765 6.08199L11.615 22.6828C12.8691 24.373 15.256 24.7265 16.9462 23.4722C18.6365 22.2181 18.9899 19.8312 17.7358 18.1411L6.87151 1.54028C5.61734 -0.149944 3.23047 -0.503458 1.54025 0.750762C-0.149942 2.00494 -0.503455 4.3918 0.750765 6.08199" transform="translate(81.81524 12.983579)" id="Fill-9" fill="#F7B801" fill-rule="evenodd" stroke="none" />
    <g id="Group-13" transform="translate(92.97298 12.75052)">F7B801
      <path d="M0 0L11.7514 0L11.7514 13.5408L0 13.5408L0 0Z" transform="translate(0.02559249 0.025117056)" id="Clip-12" fill="none" fill-rule="evenodd" stroke="none" />
      <g clip-path="url(#mask_1)">
        <path d="M0.750765 6.08199L4.87987 12.0006C6.13405 13.6907 8.52091 14.0442 10.2111 12.79C11.9015 11.5358 12.2548 9.14897 11.0007 7.45879L6.87151 1.54028C5.61733 -0.149944 3.23052 -0.503458 1.54025 0.750762C-0.149942 2.00494 -0.503455 4.3918 0.750765 6.08199" transform="translate(0.02559249 0.025117056)" id="Fill-11" fill="#F7B801" fill-rule="evenodd" stroke="none" />
      </g>
    </g>
    <g id="Group-16" transform="translate(0 0.027027028)">
      <path d="M0 0L36.7761 0L36.7761 12.9418L0 12.9418L0 0Z" transform="translate(4.1580042E-06 0.014719334)" id="Clip-15" fill="none" fill-rule="evenodd" stroke="none" />
      <g clip-path="url(#mask_2)">
        <path d="M35.8333 6.62158L31.28 1.30158C30.4889 0.397422 29.3649 -0.0421206 28.2511 0.00419958C28.1931 0.00153846 28.1346 0 28.0758 0L3.81085 0C1.70615 0 0 1.7062 0 3.81089C0 5.91559 1.70615 7.62175 3.81085 7.62175L26.6577 7.62175L30.0972 11.6403C31.483 13.2243 33.8906 13.3849 35.4746 11.999C37.0586 10.6131 37.2192 8.20557 35.8333 6.62158" transform="translate(4.1580042E-06 0.0146985445)" id="Fill-14" fill="#231F20" fill-rule="evenodd" stroke="none" />
      </g>
    </g>
    <path d="M12.1968 6.09838C12.1968 9.46644 9.46644 12.1968 6.09838 12.1968C2.73035 12.1968 0 9.46644 0 6.09838C0 2.73031 2.73035 0 6.09838 0C9.46644 0 12.1968 2.73031 12.1968 6.09838" transform="translate(58.108234 47.788685)" id="Fill-17" fill="#231F20" fill-rule="evenodd" stroke="none" />
    <path d="M12.1968 6.09838C12.1968 9.46644 9.46644 12.1968 6.09838 12.1968C2.73035 12.1968 0 9.46644 0 6.09838C0 2.73031 2.73035 0 6.09838 0C9.46644 0 12.1968 2.73031 12.1968 6.09838" transform="translate(79.128914 47.788685)" id="Fill-19" fill="#231F20" fill-rule="evenodd" stroke="none" />
  </g>
</svg>